<svg height="2206" width="720" xmlns="http://www.w3.org/2000/svg">
<rect height="2206" fill="#555" width="720"></rect>
<text fill="#7f7" font-family="Courier New" font-size="12" xml:space="preserve">
<tspan x="10" y="26"></tspan>
<tspan x="10" y="42">&gt; npmdoc-owasp-password-strength-test@0.0.1 test /home/travis/build/npmdoc/node-npmdoc-owasp-pas\</tspan>
<tspan x="10" y="58">sword-strength-test</tspan>
<tspan x="10" y="74">&gt; (set -e; export PORT=$(utility2 shServerPortRandom); utility2 test test.js)</tspan>
<tspan x="10" y="90"></tspan>
<tspan x="10" y="106"></tspan>
<tspan x="10" y="122">[MODE_BUILD=npmTest] - 2017-04-07T08:39:52Z - npm-testing /home/travis/build/npmdoc/node-npmdoc-\</tspan>
<tspan x="10" y="138">owasp-password-strength-test</tspan>
<tspan x="10" y="154"></tspan>
<tspan x="10" y="170"></tspan>
<tspan x="10" y="186">covering $ /home/travis/.nvm/versions/node/v6.10.2/bin/node /home/travis/build/npmdoc/node-npmdo\</tspan>
<tspan x="10" y="202">c-owasp-password-strength-test/test.js</tspan>
<tspan x="10" y="218">merging file:///home/travis/build/npmdoc/node-npmdoc-owasp-password-strength-test/tmp/build/test\</tspan>
<tspan x="10" y="234">-report.json to test-report</tspan>
<tspan x="10" y="250">&gt; server listening on http-port 40651</tspan>
<tspan x="10" y="266">created apidoc file:///home/travis/build/npmdoc/node-npmdoc-owasp-password-strength-test/tmp/bui\</tspan>
<tspan x="10" y="282">ld/apidoc.html</tspan>
<tspan x="10" y="298"></tspan>
<tspan x="10" y="314"></tspan>
<tspan x="10" y="330">browserTest - created electron entry-page /home/travis/build/npmdoc/node-npmdoc-owasp-password-s\</tspan>
<tspan x="10" y="346">trength-test/tmp/electron.15b4791da940.178fcc75e45f1.html</tspan>
<tspan x="10" y="362"></tspan>
<tspan x="10" y="378">[node test-case 1 of 6 passed] - testCase_buildLib_default</tspan>
<tspan x="10" y="394">[node test-case 2 of 6 passed] - testCase_buildReadme_default</tspan>
<tspan x="10" y="410">[node test-case 3 of 6 passed] - testCase_buildTest_default</tspan>
<tspan x="10" y="426"></tspan>
<tspan x="10" y="442">browserTest - created electron entry-page /home/travis/build/npmdoc/node-npmdoc-owasp-password-s\</tspan>
<tspan x="10" y="458">trength-test/tmp/electron.15b4791dabf0.e611c35c18267.html</tspan>
<tspan x="10" y="474"></tspan>
<tspan x="10" y="490">Xlib:  extension "RANDR" missing on display ":99.0".</tspan>
<tspan x="10" y="506">Xlib:  extension "RANDR" missing on display ":99.0".</tspan>
<tspan x="10" y="522">&gt; server listening on http-port 62773</tspan>
<tspan x="10" y="538">merging file:///home/travis/build/npmdoc/node-npmdoc-owasp-password-strength-test/tmp/build/test\</tspan>
<tspan x="10" y="554">-report.json to test-report</tspan>
<tspan x="10" y="570">Xlib:  extension "RANDR" missing on display ":99.0".</tspan>
<tspan x="10" y="586">merging file:///home/travis/build/npmdoc/node-npmdoc-owasp-password-strength-test/tmp/build/test\</tspan>
<tspan x="10" y="602">-report.json to test-report</tspan>
<tspan x="10" y="618">[5016:0407/083953:WARNING:audio_manager.cc(314)] Multiple instances of AudioManager detected</tspan>
<tspan x="10" y="634">[5016:0407/083953:WARNING:audio_manager.cc(275)] Multiple instances of AudioManager detected</tspan>
<tspan x="10" y="650">Xlib:  extension "RANDR" missing on display ":99.0".</tspan>
<tspan x="10" y="666">[5054:0407/083953:ERROR:sandbox_linux.cc(343)] InitializeSandbox() called with multiple threads \</tspan>
<tspan x="10" y="682">in process gpu-process. </tspan>
<tspan x="10" y="698">[5018:0407/083953:WARNING:audio_manager.cc(314)] Multiple instances of AudioManager detected</tspan>
<tspan x="10" y="714">[5018:0407/083953:WARNING:audio_manager.cc(275)] Multiple instances of AudioManager detected</tspan>
<tspan x="10" y="730">[5076:0407/083953:ERROR:sandbox_linux.cc(343)] InitializeSandbox() called with multiple threads \</tspan>
<tspan x="10" y="746">in process gpu-process. </tspan>
<tspan x="10" y="762"></tspan>
<tspan x="10" y="778">browserTest - opened url /home/travis/build/npmdoc/node-npmdoc-owasp-password-strength-test/tmp/\</tspan>
<tspan x="10" y="794">build/apidoc.html</tspan>
<tspan x="10" y="810"></tspan>
<tspan x="10" y="826"></tspan>
<tspan x="10" y="842">browserTest - opened url http://127.0.0.1:40651?modeTest=1</tspan>
<tspan x="10" y="858"></tspan>
<tspan x="10" y="874">[5018:0407/083955:INFO:CONSOLE(250)] "----------|-----------|-----------|-----------|-----------\</tspan>
<tspan x="10" y="890">|</tspan>
<tspan x="10" y="906">File      |   % Stmts |% Branches |   % Funcs |   % Lines |</tspan>
<tspan x="10" y="922">----------|-----------|-----------|-----------|-----------|</tspan>
<tspan x="10" y="938">----------|-----------|-----------|-----------|-----------|</tspan>
<tspan x="10" y="954">All files |       100 |       100 |       100 |       100 |</tspan>
<tspan x="10" y="970">----------|-----------|-----------|-----------|-----------|</tspan>
<tspan x="10" y="986">", source: file:///home/travis/build/npmdoc/node-npmdoc-owasp-password-strength-test/tmp/electro\</tspan>
<tspan x="10" y="1002">n.15b4791dabf0.e611c35c18267.html (250)</tspan>
<tspan x="10" y="1018">[5018:0407/083955:INFO:CONSOLE(250)] "created coverage file:///tmp/build/coverage.html/index.htm\</tspan>
<tspan x="10" y="1034">l", source: file:///home/travis/build/npmdoc/node-npmdoc-owasp-password-strength-test/tmp/electr\</tspan>
<tspan x="10" y="1050">on.15b4791dabf0.e611c35c18267.html (250)</tspan>
<tspan x="10" y="1066">[node test-case 4 of 6 passed] - testCase_buildApp_default</tspan>
<tspan x="10" y="1082"></tspan>
<tspan x="10" y="1098">browserTest - created screenCapture file:///home/travis/build/npmdoc/node-npmdoc-owasp-password-\</tspan>
<tspan x="10" y="1114">strength-test/tmp/build/screenCapture.npmTest.browser._2Fhome_2Ftravis_2Fbuild_2Fnpmdoc_2Fnode-n\</tspan>
<tspan x="10" y="1130">pmdoc-owasp-password-strength-test_2Ftmp_2Fbuild_2Fapidoc.html.png</tspan>
<tspan x="10" y="1146"></tspan>
<tspan x="10" y="1162">browserTest - created screenCapture file:///home/travis/build/npmdoc/node-npmdoc-owasp-password-\</tspan>
<tspan x="10" y="1178">strength-test/tmp/build/screenCapture.npmTest.browser._2Fhome_2Ftravis_2Fbuild_2Fnpmdoc_2Fnode-n\</tspan>
<tspan x="10" y="1194">pmdoc-owasp-password-strength-test_2Ftmp_2Fbuild_2Fapidoc.html.html</tspan>
<tspan x="10" y="1210"></tspan>
<tspan x="10" y="1226">browserTest - exit-code 0 - /home/travis/build/npmdoc/node-npmdoc-owasp-password-strength-test/t\</tspan>
<tspan x="10" y="1242">mp/build/apidoc.html</tspan>
<tspan x="10" y="1258"></tspan>
<tspan x="10" y="1274">[node test-case 5 of 6 passed] - testCase_buildApidoc_default</tspan>
<tspan x="10" y="1290"></tspan>
<tspan x="10" y="1306">browserTest - created screenCapture file:///home/travis/build/npmdoc/node-npmdoc-owasp-password-\</tspan>
<tspan x="10" y="1322">strength-test/tmp/build/screenCapture.npmTest.browser..png</tspan>
<tspan x="10" y="1338"></tspan>
<tspan x="10" y="1354">browserTest - created screenCapture file:///home/travis/build/npmdoc/node-npmdoc-owasp-password-\</tspan>
<tspan x="10" y="1370">strength-test/tmp/build/screenCapture.npmTest.browser..html</tspan>
<tspan x="10" y="1386"></tspan>
<tspan x="10" y="1402">browserTest - exit-code 0 - http://127.0.0.1:40651?modeTest=1</tspan>
<tspan x="10" y="1418"></tspan>
<tspan x="10" y="1434"></tspan>
<tspan x="10" y="1450">browserTest - merged coverage from /home/travis/build/npmdoc/node-npmdoc-owasp-password-strength\</tspan>
<tspan x="10" y="1466">-test/tmp/coverage.npmTest.browser.%2F.json</tspan>
<tspan x="10" y="1482"></tspan>
<tspan x="10" y="1498"></tspan>
<tspan x="10" y="1514">browserTest - merging test-report from /home/travis/build/npmdoc/node-npmdoc-owasp-password-stre\</tspan>
<tspan x="10" y="1530">ngth-test/tmp/test-report.npmTest.browser.%2F.json</tspan>
<tspan x="10" y="1546"></tspan>
<tspan x="10" y="1562">[node test-case 6 of 6 passed] - testCase_webpage_default</tspan>
<tspan x="10" y="1578">-------------------------------------------------|-----------|-----------|-----------|----------\</tspan>
<tspan x="10" y="1594">-|</tspan>
<tspan x="10" y="1610">File                                             |   % Stmts |% Branches |   % Funcs |   % Lines\</tspan>
<tspan x="10" y="1626"> |</tspan>
<tspan x="10" y="1642">-------------------------------------------------|-----------|-----------|-----------|----------\</tspan>
<tspan x="10" y="1658">-|</tspan>
<tspan x="10" y="1674">   node-npmdoc-owasp-password-strength-test/     |       100 |       100 |       100 |       100\</tspan>
<tspan x="10" y="1690"> |</tspan>
<tspan x="10" y="1706">      example.js                                 |       100 |       100 |       100 |       100\</tspan>
<tspan x="10" y="1722"> |</tspan>
<tspan x="10" y="1738">      lib.npmdoc_owasp_password_strength_test.js |       100 |       100 |       100 |       100\</tspan>
<tspan x="10" y="1754"> |</tspan>
<tspan x="10" y="1770">      test.js                                    |       100 |       100 |       100 |       100\</tspan>
<tspan x="10" y="1786"> |</tspan>
<tspan x="10" y="1802">-------------------------------------------------|-----------|-----------|-----------|----------\</tspan>
<tspan x="10" y="1818">-|</tspan>
<tspan x="10" y="1834">All files                                        |       100 |       100 |       100 |       100\</tspan>
<tspan x="10" y="1850"> |</tspan>
<tspan x="10" y="1866">-------------------------------------------------|-----------|-----------|-----------|----------\</tspan>
<tspan x="10" y="1882">-|</tspan>
<tspan x="10" y="1898"></tspan>
<tspan x="10" y="1914">created coverage file:///home/travis/build/npmdoc/node-npmdoc-owasp-password-strength-test/tmp/b\</tspan>
<tspan x="10" y="1930">uild/coverage.html/index.html</tspan>
<tspan x="10" y="1946">merging file:///home/travis/build/npmdoc/node-npmdoc-owasp-password-strength-test/tmp/build/test\</tspan>
<tspan x="10" y="1962">-report.json to test-report</tspan>
<tspan x="10" y="1978"></tspan>
<tspan x="10" y="1994">-------------------------------------------------------</tspan>
<tspan x="10" y="2010">| test-report - buildNpmdoc - node - linux v6.10.2 - 2017-04-07T08:39:31.917Z</tspan>
<tspan x="10" y="2026">|   35695 ms            0 failed        6 passed      |</tspan>
<tspan x="10" y="2042">-------------------------------------------------------</tspan>
<tspan x="10" y="2058"></tspan>
<tspan x="10" y="2074">created test-report file:///home/travis/build/npmdoc/node-npmdoc-owasp-password-strength-test/tm\</tspan>
<tspan x="10" y="2090">p/build/test-report.html</tspan>
<tspan x="10" y="2106"></tspan>
<tspan x="10" y="2122"></tspan>
<tspan x="10" y="2138">npmTest - 0 failed tests</tspan>
<tspan x="10" y="2154"></tspan>
<tspan x="10" y="2170"></tspan>
<tspan x="10" y="2186">[MODE_BUILD=npmTest] - 2017-04-07T08:40:10Z - EXIT_CODE - 0</tspan>
</text>
</svg>
